<svg version="1.1" viewBox="0 0 32 32" xmlns="http://www.w3.org/2000/svg">
    <path d="m26.025 31.789c-0.89818 0.69487-8.8052-5.3734-9.9216-5.3644-1.1164 9e-3 -8.9338 6.2035-9.842 5.5231-0.90824-0.68037 2.1561-10.435 1.8029-11.545-0.35313-1.1098-8.3912-6.9861-8.0543-8.1015 0.33686-1.1154 10.103-1.117 11.001-1.8119 0.89818-0.69487 3.7828-10.48 4.8993-10.489 1.1164-0.0089658 4.1094 9.7704 5.0176 10.451 0.90824 0.68036 10.707 0.48367 11.061 1.5935 0.35313 1.1098-7.598 7.1145-7.9348 8.2299s2.8698 10.82 1.9716 11.515z"/>
</svg>
